<svg width="83" height="104" fill="none" xmlns="http://www.w3.org/2000/svg"><path d="M8.046 97.44c0-4.112 1.487-6.287 4.27-6.287 2.782 0 4.27 2.175 4.27 6.254 0 4.078-1.51 6.237-4.31 6.237-2.799 0-4.23-2.164-4.23-6.204Zm6.677.04c0-2.989-.887-4.73-2.463-4.73-1.577 0-2.357 1.619-2.357 4.568 0 3.043.853 4.762 2.43 4.762 1.576 0 2.39-1.708 2.39-4.64v.04ZM22.571 100.222l-2.283 3.194h-2.323l3.417-4.451-3.473-4.513h2.396l2.244 3.127 2.194-3.127h2.322L23.7 98.81l3.546 4.601h-2.413l-2.26-3.188ZM38.572 94.73c0 2.226-1.722 3.85-4.219 3.85h-2.996v4.847h-1.963V91.131h5.178c2.418 0 4 1.44 4 3.6Zm-1.986.106c0-1.157-.814-1.897-2.076-1.897h-3.153v3.828h3.069c1.324 0 2.16-.735 2.16-1.93ZM46.858 100.461h-5.61l-1.122 2.966H38.04l4.836-12.296h2.39l4.836 12.296h-2.143l-1.1-2.966Zm-.69-1.814-2.11-5.62-2.103 5.62h4.213ZM59.953 103.427l-3.187-5.058h-2.463v5.058h-1.952V91.131h4.982c2.423 0 4.073 1.424 4.073 3.494a3.426 3.426 0 0 1-.72 2.138 3.475 3.475 0 0 1-1.9 1.24l3.433 5.424h-2.266Zm-.517-8.73c0-1.074-.796-1.758-1.997-1.758h-3.136v3.672h2.94c1.29 0 2.193-.79 2.193-1.914ZM72.722 99.004h1.98c-.14 2.859-2.39 4.74-5.436 4.74-3.686 0-6.042-2.671-6.042-6.515 0-3.845 2.39-6.382 6.11-6.382 2.995 0 5.048 1.669 5.318 4.29h-2.003c-.18-1.497-1.576-2.476-3.366-2.476-2.463 0-4.056 1.808-4.056 4.529 0 2.72 1.554 4.673 4.056 4.673 1.756.028 3.265-1.034 3.439-2.86Z" fill="#231F20"/><path d="m41.304 80.943-18.75-58.182" stroke="#DE9EC6" stroke-width="2" stroke-miterlimit="10"/><path d="m69.664 69.376-28.36-54.372" stroke="#56479D" stroke-width="2" stroke-miterlimit="10" stroke-linecap="round"/><path d="M81.609 41.172 59.869 59.76" stroke="#E7B0D1" stroke-width="2" stroke-miterlimit="10"/><path d="m69.804 12.707-28.5 54.627" stroke="#00AEEF" stroke-width="2" stroke-miterlimit="10"/><path d="M41.304 1 22.65 59.672" stroke="#FBB040" stroke-width="2" stroke-miterlimit="10"/><path d="m12.664 12.846 47.294 9.82" stroke="#00AEEF" stroke-width="2" stroke-miterlimit="10"/><path d="m1 41.172 13.92.022" stroke="#56479D" stroke-width="2" stroke-miterlimit="10" stroke-linecap="round"/><path d="M12.804 69.236 67.689 41.3" stroke="#FBB040" stroke-width="2" stroke-miterlimit="10"/></svg>