<svg width="615" height="615" viewBox="0 0 615 615" fill="none" xmlns="http://www.w3.org/2000/svg">
<rect width="615" height="615" fill="white" fill-opacity="0"/>
<path d="M394.258 86.8578L412.461 106.536C412.461 106.536 387.37 100.139 387.37 134.582C387.37 169.021 440.506 160.658 440.506 134.582C440.506 108.506 427.221 78 387.37 78C347.519 78 297.826 119.822 297.826 224.124V285.133C297.826 285.133 298.811 309.242 285.526 312.194C298.317 317.115 297.335 333.348 297.335 335.318C297.335 337.284 318.984 505.55 215.171 521.294C193.032 495.709 193.032 495.709 193.032 495.709C193.032 495.709 228.947 500.136 228.947 464.712C228.947 429.288 189.586 431.748 189.586 431.748C189.586 431.748 151.21 438.636 154.162 474.551C157.113 510.466 189.096 537.527 227.962 537.527C266.832 537.531 337.186 496.2 337.186 370.739C337.186 353.517 337.186 337.285 347.025 330.888C336.691 326.461 336.201 304.322 336.201 288.576C336.204 288.573 319.474 79.476 394.259 86.856L394.258 86.8578Z" fill="white"/>
</svg>
